<svg width="235" height="236" viewBox="0 0 235 236" fill="none" xmlns="http://www.w3.org/2000/svg">
<path opacity="0.3" d="M169.591 178.816C199.194 148.262 199.194 98.7228 169.591 68.1682C139.988 37.6135 91.9926 37.6135 62.3898 68.1682C32.7869 98.7228 32.7869 148.262 62.3898 178.816C91.9926 209.371 139.988 209.371 169.591 178.816Z" fill="#C7E4FF"/>
<path opacity="0.5" d="M177.779 142.212V168.585C174.981 172.604 171.817 176.372 168.41 179.888V142.212C168.41 141.961 163.786 138.068 160.258 135.179V133.421L164.516 132.291C166.22 131.788 168.045 132.04 169.748 132.667C170.479 133.044 171.209 133.295 172.06 133.547V136.937C175.589 140.077 177.779 141.961 177.779 142.212Z" fill="#A6C4FF"/>
<path d="M8.16016 23.1406L30.4267 77.0175L46.6095 65.4635L56.1001 79.6548L57.8036 55.7933L77.3933 43.4857L8.16016 23.1406Z" fill="#FFB031"/>
<path d="M50.2624 62.9514L30.4293 77.0172L46.6121 65.4632L56.1028 79.6545L57.8062 55.7929L26.4141 36.5781L50.2624 62.9514Z" fill="#FF9433"/>
<path d="M57.3195 61.6955L26.4141 36.5781L57.8062 55.7929L57.3195 61.6955Z" fill="#FF7733"/>
<path d="M56.4599 86.3133C56.3383 85.3086 56.0949 84.1783 55.8516 83.1736L57.4333 82.7969C57.6767 83.8016 57.92 84.9319 58.1634 86.0621L56.4599 86.3133Z" fill="#00C8B7"/>
<path d="M38.0855 122.86C35.7736 122.734 33.5835 121.981 31.7584 120.725L32.6101 119.343C34.1919 120.474 36.1387 121.101 38.2072 121.227L38.0855 122.86ZM44.5343 121.604L43.8042 120.097C45.386 119.218 47.0894 117.962 48.5495 116.204L49.7663 117.334C48.1845 119.218 46.3594 120.599 44.5343 121.604ZM27.2564 115.576C26.4047 113.692 25.918 111.682 25.918 109.673C25.918 109.547 25.918 109.296 25.918 109.171V108.794L27.4997 108.919V109.171C27.4997 109.296 27.4997 109.422 27.4997 109.547C27.4997 111.306 27.8648 113.064 28.7165 114.696L27.2564 115.576ZM88.3373 115.199V113.566C90.4058 113.566 92.4742 113.441 94.6644 113.315L94.7861 114.948C92.5959 115.073 90.4058 115.073 88.3373 115.199ZM82.0102 114.948L81.0368 114.822C79.09 114.696 77.3865 114.445 75.6831 114.069L75.9264 112.436C77.5082 112.687 79.2116 112.938 81.1584 113.064L82.1318 113.189L82.0102 114.948ZM101.113 114.194L100.87 112.562C102.938 112.31 105.007 111.934 107.075 111.557L107.319 113.189C105.25 113.566 103.182 113.943 101.113 114.194ZM69.356 112.562C67.5308 111.934 65.7057 111.054 64.2456 110.175C64.0023 110.05 63.7589 109.924 63.5156 109.673L64.3673 108.292C64.6106 108.417 64.854 108.543 65.0973 108.668C66.5574 109.547 68.2609 110.301 69.9643 110.929L69.356 112.562ZM53.5382 111.934L52.1998 111.18C53.1732 109.296 54.1466 107.412 54.755 105.403L56.2151 105.905C55.485 107.915 54.6333 109.924 53.5382 111.934ZM113.646 111.682L113.281 110.05C115.227 109.547 117.296 109.045 119.364 108.417L119.851 109.924C117.661 110.678 115.592 111.18 113.646 111.682ZM125.935 108.166L125.448 106.659C127.395 106.031 129.463 105.277 131.41 104.524L131.897 106.031C129.95 106.785 127.882 107.412 125.935 108.166ZM58.1619 105.905C56.7018 104.775 55.12 103.645 53.4165 102.766L52.9298 102.515L53.6599 101.007C53.9032 101.133 54.0249 101.259 54.2683 101.259C56.0934 102.263 57.6752 103.519 59.1353 104.524L58.1619 105.905ZM29.8116 103.519L28.7165 102.389C30.0549 101.008 32.0017 99.8772 34.5569 99.1237L35.0436 100.631C32.6101 101.384 30.9066 102.263 29.8116 103.519ZM47.0894 100.38C45.2643 100.003 43.4392 99.7516 41.6141 99.7516H41.0057V98.119C43.1958 98.119 45.386 98.2446 47.4545 98.7469L47.0894 100.38ZM57.9185 99.3749L56.3367 99.1237C56.7018 96.9887 56.9451 94.8537 56.9451 92.7188H58.5269C58.5269 94.9793 58.2835 97.1143 57.9185 99.3749Z" fill="#6EB5F6"/>
<path d="M137.983 103.645L137.375 102.138C138.348 101.761 139.322 101.385 140.295 101.008L140.904 102.515C139.93 102.892 138.957 103.268 137.983 103.645Z" fill="#00C8B7"/>
<path d="M168.412 142.197L113.415 175.604L58.5391 142.197V142.072C58.5391 141.821 61.5809 139.183 66.2046 135.416L66.3263 135.29C81.5356 122.606 113.415 96.6094 113.415 96.6094C113.415 96.6094 145.415 122.606 160.503 135.416C165.248 139.309 168.412 141.946 168.412 142.197Z" fill="#7A4C08"/>
<path d="M136.05 68.8516H76.7942C71.6838 68.8516 67.5469 73.1215 67.5469 78.3962V170.954C67.5469 176.229 71.6838 180.498 76.7942 180.498H151.138C156.248 180.498 160.385 176.229 160.385 170.954V93.8434L136.05 68.8516Z" fill="white"/>
<path d="M136.051 84.2988C136.051 89.5734 140.188 93.8434 145.298 93.8434H160.264L136.051 68.8516V84.2988Z" fill="#E6E8E8"/>
<path d="M105.007 88.5469L84.9141 108.869H91.1682L93.0039 106.175L103.401 90.9067L105.007 88.5469Z" fill="white"/>
<path d="M99.0847 88.5469L98.4424 89.4687L88.3587 103.928L84.9141 108.869L105.007 88.5469H99.0847Z" fill="white"/>
<path d="M103.015 105.321L102.756 104.942C102.539 104.625 102.187 104.438 101.813 104.438H97.0864C96.9114 104.438 96.7756 104.545 96.7109 104.687L105.448 108.87L103.015 105.321Z" fill="white"/>
<path d="M96.7124 104.688C96.6549 104.814 96.6541 104.969 96.7395 105.105L97.7101 106.629H97.7125L99.1401 108.87H105.45L96.7132 104.688H96.7124Z" fill="white"/>
<path d="M93.8781 92.3075L92.3819 90.0401L91.3961 88.5469H85.2227L93.7814 92.8929C93.9492 92.7635 94.0123 92.5112 93.8789 92.3075H93.8781Z" fill="white"/>
<path d="M85.2227 88.5477L87.8564 92.4667C87.8676 92.4823 87.878 92.4955 87.8892 92.5112C88.1073 92.8055 88.4452 92.9795 88.8063 92.9795H93.5354C93.6321 92.9795 93.7143 92.9449 93.7822 92.8929L85.2235 88.5469L85.2227 88.5477Z" fill="white"/>
<path d="M104.995 88.4062L84.6328 109H90.9705L92.8308 106.27L103.367 90.7976L104.995 88.4062Z" fill="url(#paint0_linear_0_554)"/>
<path d="M98.9929 88.4062L98.342 89.3404L88.1235 103.993L84.6328 109L104.995 88.4062H98.9929Z" fill="url(#paint1_linear_0_554)"/>
<path d="M102.982 105.404L102.719 105.019C102.5 104.698 102.143 104.508 101.764 104.508H96.9742C96.7969 104.508 96.6593 104.616 96.5938 104.761L105.447 109L102.982 105.404Z" fill="#F69300"/>
<path d="M96.5879 104.766C96.5296 104.894 96.5288 105.051 96.6154 105.188L97.599 106.733H97.6014L99.0481 109.004H105.442L96.5887 104.766H96.5879Z" fill="url(#paint2_linear_0_554)"/>
<path d="M93.7126 92.2172L92.1963 89.9194L91.1974 88.4062H84.9414L93.6146 92.8104C93.7846 92.6792 93.8486 92.4236 93.7134 92.2172H93.7126Z" fill="url(#paint3_linear_0_554)"/>
<path d="M84.9414 88.4071L87.6104 92.3784C87.6217 92.3943 87.6323 92.4077 87.6436 92.4236C87.8646 92.7219 88.207 92.8982 88.5729 92.8982H93.3653C93.4632 92.8982 93.5466 92.8631 93.6154 92.8104L84.9422 88.4062L84.9414 88.4071Z" fill="#F69300"/>
<path d="M133.373 120.094H84.2159C82.7558 120.094 81.5391 121.35 81.5391 122.857C81.5391 124.364 82.7558 125.62 84.2159 125.62H133.373C134.833 125.62 136.049 124.364 136.049 122.857C136.049 121.35 134.833 120.094 133.373 120.094Z" fill="#C7E4FF"/>
<path d="M133.373 133.781H84.2159C82.7558 133.781 81.5391 135.037 81.5391 136.544C81.5391 138.051 82.7558 139.307 84.2159 139.307H133.373C134.833 139.307 136.049 138.051 136.049 136.544C136.049 134.912 134.833 133.781 133.373 133.781Z" fill="#C7E4FF"/>
<path d="M111.106 146.969H84.337C82.8769 146.969 81.6602 148.225 81.6602 149.732C81.6602 151.239 82.8769 152.495 84.337 152.495H111.106C112.566 152.495 113.782 151.239 113.782 149.732C113.661 148.099 112.566 146.969 111.106 146.969Z" fill="#C7E4FF"/>
<path d="M168.412 142.188V196.567C168.412 200.334 165.37 203.474 161.719 203.474H65.2312C61.5809 203.474 58.5391 200.334 58.5391 196.567V142.188L113.536 175.594L168.412 142.188Z" fill="#FFB031"/>
<path d="M166.586 201.468L131.179 164.922L113.414 175.722L95.6496 164.922L60.2422 201.468C61.4589 202.849 63.1624 203.603 65.1092 203.603H161.719C163.666 203.603 165.369 202.724 166.586 201.468Z" fill="#FF9433"/>
<path d="M179.476 67.4751C163.658 69.1077 151.004 82.5455 149.909 98.8719C149.3 107.035 151.612 114.57 155.749 120.724C157.331 122.985 157.574 125.999 156.479 128.636L153.924 135.167L164.632 132.278C166.335 131.776 168.16 131.901 169.864 132.655C174.852 134.915 180.328 135.92 186.29 135.292C201.864 133.785 214.397 120.85 215.857 104.774C217.804 83.2991 200.404 65.4657 179.476 67.4751Z" fill="#0052FE"/>
<path d="M183.734 118.713L185.56 116.829C185.56 116.829 184.1 113.313 190.183 107.41C193.834 103.894 194.564 100.503 194.32 97.7399C193.834 93.3444 190.305 89.7024 186.046 89.2C183.369 88.9488 180.084 89.7024 176.677 93.47C170.959 99.7493 167.552 98.2423 167.552 98.2423L165.727 100.126L183.734 118.713Z" fill="white"/>
<path d="M169.74 107.164C168.28 109.173 168.523 112.062 170.227 113.82C171.93 115.578 174.729 115.83 176.675 114.323L169.74 107.164Z" fill="white"/>
<path d="M195.538 91.3403L194.443 92.4706C193.591 91.0891 192.374 89.8332 190.914 88.9541L192.009 87.8238C192.983 86.8191 194.564 86.8191 195.538 87.8238C196.389 88.8285 196.389 90.3356 195.538 91.3403Z" fill="white"/>
<path d="M182.034 67.3466C193.837 70.9886 202.354 82.1659 202.354 95.6037C202.354 111.93 189.578 125.117 173.76 125.117C165.486 125.117 158.064 121.475 152.832 115.572C153.684 117.456 154.657 119.214 155.752 120.847C157.334 123.107 157.577 126.121 156.482 128.759L153.927 135.289L164.635 132.401C166.338 131.898 168.163 132.024 169.867 132.777C174.855 135.038 180.331 136.043 186.293 135.415C201.867 133.908 214.4 120.972 215.86 104.897C217.685 84.1753 201.745 66.8442 182.034 67.3466Z" fill="#0141CF"/>
<path d="M9.98481 39.0871L17.1636 56.1669C17.5287 57.046 17.1636 58.0507 16.3119 58.4275L16.0686 58.5531C15.2168 58.9298 14.2434 58.5531 13.8784 57.674L6.94293 40.4685C6.57791 39.5894 7.06461 38.5847 7.91633 38.208C8.76806 37.8312 9.74146 38.208 9.98481 39.0871Z" fill="#FFB031"/>
<defs>
<linearGradient id="paint0_linear_0_554" x1="100.42" y1="93.9326" x2="92.2443" y2="103.096" gradientUnits="userSpaceOnUse">
<stop stop-color="#FFAC00"/>
<stop offset="1" stop-color="#FE7801"/>
</linearGradient>
<linearGradient id="paint1_linear_0_554" x1="84.6328" y1="98.7035" x2="104.995" y2="98.7035" gradientUnits="userSpaceOnUse">
<stop stop-color="#FFCE00"/>
<stop offset="1" stop-color="#FFB003"/>
</linearGradient>
<linearGradient id="paint2_linear_0_554" x1="96.5466" y1="106.885" x2="105.442" y2="106.885" gradientUnits="userSpaceOnUse">
<stop stop-color="#FE8B01"/>
<stop offset="1" stop-color="#FE7801"/>
</linearGradient>
<linearGradient id="paint3_linear_0_554" x1="84.9406" y1="90.6079" x2="93.7862" y2="90.6079" gradientUnits="userSpaceOnUse">
<stop stop-color="#FFCE00"/>
<stop offset="1" stop-color="#FFC101"/>
</linearGradient>
</defs>
</svg>
